<svg width="180" height="180" viewBox="0 0 180 180" fill="none" xmlns="http://www.w3.org/2000/svg">
<rect width="180" height="180" rx="90" fill="white"/>
<path fill-rule="evenodd" clip-rule="evenodd" d="M51.1011 56.52V122.419C51.1011 132.747 42.7283 141.12 32.4 141.12V58.3011C32.4 47.9887 40.747 39.6258 51.0533 39.6001C51.0692 39.6 51.0851 39.6 51.1011 39.6H130.358C139.703 39.6 147.278 47.1753 147.278 56.52H76.9263V78.7832L125.905 78.7832C134.205 78.7832 141.031 85.0908 141.852 93.1737C141.907 93.7126 141.935 94.2593 141.935 94.8126V125.091C141.935 133.943 134.758 141.12 125.905 141.12V94.8126L76.9263 94.8126C68.0735 94.8126 60.8969 87.636 60.8969 78.7832V56.52H51.1011ZM60.8969 136.667C60.8969 138.143 62.093 139.339 63.5684 139.339H115.219C117.678 139.339 119.672 137.345 119.672 134.886V114.404C119.672 111.945 117.678 109.952 115.219 109.952H87.6126C72.8579 109.952 60.8969 121.913 60.8969 136.667Z" fill="url(#paint0_linear_1_20)"/>
<defs>
<linearGradient id="paint0_linear_1_20" x1="41.76" y1="46.08" x2="128.88" y2="146.16" gradientUnits="userSpaceOnUse">
<stop stop-color="#844417"/>
<stop offset="1" stop-color="#361919"/>
</linearGradient>
</defs>
</svg>
