<svg width="16" height="16" viewBox="0 0 16 16" fill="none" xmlns="http://www.w3.org/2000/svg">
<rect width="16" height="16" rx="8" fill="white"/>
<path fill-rule="evenodd" clip-rule="evenodd" d="M4.54232 5.02402V10.8817C4.54232 11.7998 3.79808 12.544 2.88 12.544V5.18235C2.88 4.27168 3.61231 3.53204 4.52017 3.52018C4.52754 3.52007 4.53492 3.52002 4.54232 3.52002H11.5874C12.418 3.52002 13.0914 4.19338 13.0914 5.02402H6.8379V7.00297H11.1916H11.1916V7.00296C11.9785 7.00296 12.6164 7.64088 12.6164 8.4278V11.1192C12.6164 11.9061 11.9785 12.544 11.1916 12.544V8.42781H6.8379C6.05098 8.42781 5.41306 7.78989 5.41306 7.00297V7.00296V5.02402H4.54232ZM5.41306 12.1482C5.41306 12.2794 5.51938 12.3857 5.65053 12.3857H10.2417C10.4603 12.3857 10.6375 12.2085 10.6375 11.9899V10.1693C10.6375 9.95069 10.4603 9.77349 10.2417 9.77349L7.78779 9.77349C6.47626 9.77349 5.41306 10.8367 5.41306 12.1482Z" fill="url(#paint0_linear_1_28)"/>
<defs>
<linearGradient id="paint0_linear_1_28" x1="3.71201" y1="4.09602" x2="11.456" y2="12.992" gradientUnits="userSpaceOnUse">
<stop stop-color="#844417"/>
<stop offset="1" stop-color="#361919"/>
</linearGradient>
</defs>
</svg>
