<svg width="32" height="32" viewBox="0 0 32 32" fill="none" xmlns="http://www.w3.org/2000/svg">
<rect width="32" height="32" rx="16" fill="white"/>
<path fill-rule="evenodd" clip-rule="evenodd" d="M9.08463 10.048V21.7634C9.08463 23.5995 7.59614 25.088 5.75999 25.088V10.3646C5.75999 8.53584 7.23662 7.05191 9.06265 7.04009C9.06997 7.04003 9.07729 7.04001 9.08463 7.04001H23.1747C24.836 7.04001 26.1827 8.38674 26.1827 10.048H13.6758V14.0059L22.3832 14.0059C23.957 14.0059 25.2328 15.2817 25.2328 16.8556V22.2383C25.2328 23.8122 23.957 25.088 22.3832 25.088V16.8556L13.6758 16.8556C12.1019 16.8556 10.8261 15.5797 10.8261 14.0059V14.0059V10.048H9.08463ZM10.8261 24.2964C10.8261 24.5587 11.0387 24.7714 11.301 24.7714H20.4834C20.9205 24.7714 21.2749 24.417 21.2749 23.9798V20.3385C21.2749 19.9014 20.9205 19.547 20.4834 19.547L15.5756 19.547C12.9525 19.547 10.8261 21.6734 10.8261 24.2964Z" fill="url(#paint0_linear_1_12)"/>
<defs>
<linearGradient id="paint0_linear_1_12" x1="7.424" y1="8.19201" x2="22.912" y2="25.984" gradientUnits="userSpaceOnUse">
<stop stop-color="#844417"/>
<stop offset="1" stop-color="#361919"/>
</linearGradient>
</defs>
</svg>
