<svg width="96" height="96" viewBox="0 0 96 96" fill="none" xmlns="http://www.w3.org/2000/svg">
<rect width="96" height="96" rx="48" fill="white"/>
<path fill-rule="evenodd" clip-rule="evenodd" d="M27.2539 21.12C21.7454 21.12 17.28 25.5855 17.28 31.0939V75.264C22.7884 75.264 27.2539 70.7986 27.2539 65.2901V30.144H32.4783V42.0176V42.0177C32.4783 46.7392 36.3058 50.5668 41.0273 50.5668H67.1494V75.264C71.871 75.264 75.6985 71.4364 75.6985 66.7149V50.5668V50.5667C75.6985 48.7243 75.1157 47.018 74.1244 45.6222C72.5752 43.4409 70.0285 42.0177 67.1494 42.0177V42.0177H41.0273V30.144H78.5482C78.5482 25.1602 74.508 21.12 69.5242 21.12H27.2539C27.2539 21.12 27.2539 21.12 27.2539 21.12ZM32.4783 72.8892C32.4783 73.6762 33.1162 74.3141 33.9031 74.3141H61.4501C62.7616 74.3141 63.8248 73.2509 63.8248 71.9394V61.0156C63.8248 59.704 62.7616 58.6408 61.4501 58.6408H46.7267C38.8575 58.6408 32.4783 65.0201 32.4783 72.8892Z" fill="url(#paint0_linear_1_36)"/>
<defs>
<linearGradient id="paint0_linear_1_36" x1="22.272" y1="24.576" x2="68.736" y2="77.952" gradientUnits="userSpaceOnUse">
<stop stop-color="#844417"/>
<stop offset="1" stop-color="#361919"/>
</linearGradient>
</defs>
</svg>
